<mxfile host="app.diagrams.net" agent="Mozilla/5.0 (X11; Linux x86_64; rv:129.0) Gecko/20100101 Firefox/129.0" version="24.7.17">
  <diagram name="Page-1" id="LDE6a5up5tDuVdPKsDCu">
    <mxGraphModel dx="1114" dy="568" grid="1" gridSize="10" guides="1" tooltips="1" connect="1" arrows="1" fold="1" page="1" pageScale="1" pageWidth="850" pageHeight="1100" math="0" shadow="0">
      <root>
        <mxCell id="0" />
        <mxCell id="1" parent="0" />
        <mxCell id="dK28W5_kKzys39fKI3Vj-4" style="edgeStyle=orthogonalEdgeStyle;rounded=0;orthogonalLoop=1;jettySize=auto;html=1;exitX=0.5;exitY=1;exitDx=0;exitDy=0;entryX=0.5;entryY=0;entryDx=0;entryDy=0;" edge="1" parent="1" source="dK28W5_kKzys39fKI3Vj-1" target="dK28W5_kKzys39fKI3Vj-2">
          <mxGeometry relative="1" as="geometry" />
        </mxCell>
        <mxCell id="dK28W5_kKzys39fKI3Vj-1" value="Open Program" style="rounded=0;whiteSpace=wrap;html=1;" vertex="1" parent="1">
          <mxGeometry x="80" y="80" width="90" height="20" as="geometry" />
        </mxCell>
        <mxCell id="dK28W5_kKzys39fKI3Vj-5" style="edgeStyle=orthogonalEdgeStyle;rounded=0;orthogonalLoop=1;jettySize=auto;html=1;exitX=1;exitY=0.5;exitDx=0;exitDy=0;" edge="1" parent="1" source="dK28W5_kKzys39fKI3Vj-2">
          <mxGeometry relative="1" as="geometry">
            <mxPoint x="190" y="130" as="targetPoint" />
          </mxGeometry>
        </mxCell>
        <mxCell id="dK28W5_kKzys39fKI3Vj-10" style="edgeStyle=orthogonalEdgeStyle;rounded=0;orthogonalLoop=1;jettySize=auto;html=1;exitX=0.5;exitY=1;exitDx=0;exitDy=0;entryX=0;entryY=0.5;entryDx=0;entryDy=0;" edge="1" parent="1" source="dK28W5_kKzys39fKI3Vj-2" target="dK28W5_kKzys39fKI3Vj-8">
          <mxGeometry relative="1" as="geometry" />
        </mxCell>
        <mxCell id="dK28W5_kKzys39fKI3Vj-11" style="edgeStyle=orthogonalEdgeStyle;rounded=0;orthogonalLoop=1;jettySize=auto;html=1;exitX=0.75;exitY=1;exitDx=0;exitDy=0;entryX=0;entryY=0.5;entryDx=0;entryDy=0;" edge="1" parent="1" source="dK28W5_kKzys39fKI3Vj-2" target="dK28W5_kKzys39fKI3Vj-7">
          <mxGeometry relative="1" as="geometry" />
        </mxCell>
        <mxCell id="dK28W5_kKzys39fKI3Vj-2" value="Main Menu" style="rounded=0;whiteSpace=wrap;html=1;" vertex="1" parent="1">
          <mxGeometry x="80" y="120" width="90" height="20" as="geometry" />
        </mxCell>
        <mxCell id="dK28W5_kKzys39fKI3Vj-13" value="" style="edgeStyle=orthogonalEdgeStyle;rounded=0;orthogonalLoop=1;jettySize=auto;html=1;" edge="1" parent="1" source="dK28W5_kKzys39fKI3Vj-6" target="dK28W5_kKzys39fKI3Vj-12">
          <mxGeometry relative="1" as="geometry" />
        </mxCell>
        <mxCell id="dK28W5_kKzys39fKI3Vj-6" value="New Game" style="rounded=0;whiteSpace=wrap;html=1;" vertex="1" parent="1">
          <mxGeometry x="190" y="120" width="100" height="20" as="geometry" />
        </mxCell>
        <mxCell id="dK28W5_kKzys39fKI3Vj-25" style="edgeStyle=orthogonalEdgeStyle;rounded=0;orthogonalLoop=1;jettySize=auto;html=1;exitX=1;exitY=0.5;exitDx=0;exitDy=0;" edge="1" parent="1" source="dK28W5_kKzys39fKI3Vj-7" target="dK28W5_kKzys39fKI3Vj-22">
          <mxGeometry relative="1" as="geometry" />
        </mxCell>
        <mxCell id="dK28W5_kKzys39fKI3Vj-7" value="&lt;div&gt;Load Game&lt;/div&gt;" style="rounded=0;whiteSpace=wrap;html=1;" vertex="1" parent="1">
          <mxGeometry x="190" y="150" width="100" height="20" as="geometry" />
        </mxCell>
        <mxCell id="dK28W5_kKzys39fKI3Vj-27" style="edgeStyle=orthogonalEdgeStyle;rounded=0;orthogonalLoop=1;jettySize=auto;html=1;exitX=0;exitY=0.5;exitDx=0;exitDy=0;entryX=0.5;entryY=1;entryDx=0;entryDy=0;" edge="1" parent="1" source="dK28W5_kKzys39fKI3Vj-8" target="dK28W5_kKzys39fKI3Vj-2">
          <mxGeometry relative="1" as="geometry" />
        </mxCell>
        <mxCell id="dK28W5_kKzys39fKI3Vj-8" value="&lt;div&gt;Settings&lt;/div&gt;" style="rounded=0;whiteSpace=wrap;html=1;" vertex="1" parent="1">
          <mxGeometry x="190" y="180" width="100" height="20" as="geometry" />
        </mxCell>
        <mxCell id="dK28W5_kKzys39fKI3Vj-18" value="" style="edgeStyle=orthogonalEdgeStyle;rounded=0;orthogonalLoop=1;jettySize=auto;html=1;" edge="1" parent="1" source="dK28W5_kKzys39fKI3Vj-12" target="dK28W5_kKzys39fKI3Vj-17">
          <mxGeometry relative="1" as="geometry" />
        </mxCell>
        <mxCell id="dK28W5_kKzys39fKI3Vj-12" value="Create Scene" style="whiteSpace=wrap;html=1;rounded=0;" vertex="1" parent="1">
          <mxGeometry x="190" y="80" width="100" height="20" as="geometry" />
        </mxCell>
        <mxCell id="dK28W5_kKzys39fKI3Vj-24" style="edgeStyle=orthogonalEdgeStyle;rounded=0;orthogonalLoop=1;jettySize=auto;html=1;exitX=1;exitY=0.5;exitDx=0;exitDy=0;entryX=0.5;entryY=0;entryDx=0;entryDy=0;" edge="1" parent="1" source="dK28W5_kKzys39fKI3Vj-17" target="dK28W5_kKzys39fKI3Vj-22">
          <mxGeometry relative="1" as="geometry" />
        </mxCell>
        <mxCell id="dK28W5_kKzys39fKI3Vj-17" value="Store Scene" style="whiteSpace=wrap;html=1;rounded=0;" vertex="1" parent="1">
          <mxGeometry x="190" y="40" width="100" height="20" as="geometry" />
        </mxCell>
        <mxCell id="dK28W5_kKzys39fKI3Vj-26" style="edgeStyle=orthogonalEdgeStyle;rounded=0;orthogonalLoop=1;jettySize=auto;html=1;exitX=0.5;exitY=0;exitDx=0;exitDy=0;entryX=1;entryY=0.5;entryDx=0;entryDy=0;" edge="1" parent="1" source="dK28W5_kKzys39fKI3Vj-22" target="dK28W5_kKzys39fKI3Vj-17">
          <mxGeometry relative="1" as="geometry" />
        </mxCell>
        <mxCell id="dK28W5_kKzys39fKI3Vj-22" value="Load Scene" style="rounded=0;whiteSpace=wrap;html=1;" vertex="1" parent="1">
          <mxGeometry x="310" y="150" width="100" height="20" as="geometry" />
        </mxCell>
      </root>
    </mxGraphModel>
  </diagram>
</mxfile>
